<svg width="337" height="244" viewBox="0 0 337 244" fill="none" xmlns="http://www.w3.org/2000/svg">
<rect width="337" height="244" fill="white"/>
<g clip-path="url(#clip0_1122_30)">
<g opacity="0.89">
<path d="M100.549 129.286C100.002 127.502 99.3847 125.543 99.1947 124.889C98.9809 124.286 98.3872 122.427 97.9121 120.819L96.9858 117.854L97.1046 128.683L97.1758 138.985C97.1758 139.312 97.0571 139.638 96.8433 139.889C96.6296 140.166 95.8933 140.342 94.1595 140.493C91.2381 140.719 91.2618 140.719 91.0956 140.266C90.9293 139.764 90.9531 122.804 91.1431 116.724C91.2143 114.337 91.3331 110.241 91.3806 107.678C91.4993 103.281 91.5231 102.955 91.7843 102.402C92.0456 101.899 92.1169 102.025 92.3306 102C92.7819 102 93.5657 102.352 94.777 102.452C95.9645 102.553 97.0571 102.729 97.1758 102.829C97.3184 102.879 97.8884 104.513 98.4822 106.347C100.976 114.161 103.042 120.191 103.897 122.302L104.847 124.588L105.014 119.839C105.085 117.226 105.204 112.427 105.251 109.06C105.299 105.769 105.418 102.93 105.465 102.754C105.56 102.503 106.273 102.452 108.101 102.452C110.334 102.452 110.595 102.503 110.714 102.905C110.762 103.181 110.762 107.101 110.714 111.548C110.667 116.07 110.619 124.312 110.619 129.915C110.595 137.729 110.548 140.191 110.405 140.568C110.263 141.02 109.954 141.07 107.888 141.121C106.272 141.121 105.441 141.07 105.251 140.844C104.111 139.487 102.259 134.915 100.549 129.286Z" fill="#E33251"/>
<path d="M208.545 129.287C207.999 127.503 207.381 125.543 207.191 124.889C206.978 124.286 206.384 122.427 205.909 120.819L204.982 117.854L205.101 128.684L205.172 138.985C205.172 139.312 205.054 139.638 204.84 139.889C204.626 140.166 203.89 140.342 202.156 140.493C199.235 140.719 199.258 140.719 199.092 140.266C198.926 139.764 198.95 122.804 199.14 116.724C199.211 114.337 199.33 110.241 199.377 107.678C199.448 103.281 199.496 102.93 199.757 102.377C200.018 101.874 200.09 102 200.303 101.975C200.731 101.95 201.515 102.302 202.726 102.427C203.914 102.528 205.006 102.704 205.125 102.804C205.267 102.854 205.837 104.487 206.431 106.322C208.925 114.136 210.991 120.166 211.847 122.276L212.797 124.563L212.963 119.814C213.034 117.201 213.153 112.402 213.2 109.035C213.248 105.744 213.367 102.905 213.414 102.729C213.557 102.503 214.269 102.452 216.098 102.452C218.331 102.452 218.592 102.503 218.711 102.905C218.758 103.181 218.758 107.101 218.711 111.548C218.663 116.07 218.616 124.312 218.616 129.915C218.592 137.729 218.544 140.191 218.402 140.568C218.259 141.02 217.951 141.07 215.884 141.121C214.269 141.121 213.438 141.07 213.248 140.844C212.108 139.487 210.255 134.915 208.545 129.287Z" fill="#E33251"/>
<path d="M155.176 112.126C155.698 113.382 156.007 114.563 156.102 115.342C156.245 117.704 155.01 121.975 154.012 122.528C153.347 122.955 153.489 123.256 154.63 124.06C156.458 125.342 158.715 127.603 159.285 128.759C159.807 129.764 159.855 130.141 159.855 132.126C159.855 135.769 159.071 137.201 156.363 138.533C155.223 139.086 155.01 139.136 150.924 139.186C148.573 139.186 144.298 139.287 141.424 139.362C137.457 139.462 136.104 139.412 135.676 139.186C135.201 138.91 135.154 138.734 134.892 136.422C134.37 131.221 134.204 126.598 134.417 122.226C134.56 119.864 134.726 115.995 134.845 113.608C135.059 108.96 135.272 107.854 136.151 107.477C136.412 107.377 138.716 107.201 141.21 107.025C142.398 106.975 143.443 106.925 144.393 106.925C151.091 106.824 153.537 108.156 155.176 112.126ZM143.134 115.141C143.039 115.292 142.825 115.995 142.778 116.724C142.635 118.256 142.683 118.256 145.367 117.628C146.269 117.427 147.267 117 147.575 116.724C148.335 115.995 148.217 115.241 147.433 114.864C147.124 114.764 146.483 114.714 145.842 114.714C144.678 114.714 143.372 114.89 143.134 115.141ZM144.63 127.201C144.084 127.251 144.084 127.402 143.989 129.312C143.894 131.699 144.132 132.126 145.889 132.704C147.1 133.081 148.597 132.98 149.642 132.377C149.998 132.226 150.283 131.849 150.283 131.648C150.283 131.447 149.737 130.643 149.024 129.839C147.765 128.407 145.818 127.201 144.82 127.201C144.725 127.201 144.678 127.201 144.63 127.201Z" fill="#E33251"/>
<path d="M165.247 140.693C162.373 138.683 161.423 133.407 161.47 120.216L161.494 117.427L162.088 117.251C162.444 117.176 163.869 117 165.271 116.874C167.622 116.673 167.931 116.673 168.358 116.95C168.857 117.301 168.857 117.301 168.548 120.769C168.43 121.774 168.453 123.181 168.572 124.487C168.691 125.643 168.857 127.904 168.976 129.487C169.285 133.231 169.498 133.708 171.09 133.96C171.66 134.06 171.802 134.01 172.657 133.156C174.201 131.648 174.557 129.814 174.415 123.935C174.296 119.512 174.367 117.528 174.724 117.05C174.89 116.774 175.317 116.698 177.479 116.548C178.856 116.422 180.139 116.372 180.281 116.397C180.448 116.422 180.756 116.673 180.899 116.924C181.184 117.352 181.255 117.904 181.398 123.482C181.564 129.613 181.516 134.337 181.208 135.844C180.709 138.533 178.666 140.618 175.555 141.648C174.415 142 170.377 142.151 168.453 141.874C166.838 141.623 166.292 141.422 165.247 140.693Z" fill="#E33251"/>
<path d="M184.627 137.628L184.413 137.151C184.271 136.799 184.152 135.467 183.962 132.402C183.796 130.065 183.582 127.553 183.463 126.774C183.155 125.04 183.06 121.799 183.25 120.015C183.416 118.482 183.653 118.106 184.627 117.93C184.936 117.854 187.715 117.678 190.803 117.528C197.619 117.176 197.144 117 196.907 119.337C196.788 120.191 196.764 121.246 196.812 121.724C196.883 122.528 196.859 122.628 196.574 122.879C196.337 123.08 195.79 123.256 194.816 123.457C194.033 123.608 192.251 123.96 191.04 124.211L188.784 124.689L188.879 125.392C188.95 125.794 189.021 126.121 189.045 126.146C189.045 126.146 189.734 126.07 190.517 125.92C192.441 125.568 193.961 125.493 194.151 125.769C194.27 125.92 194.365 126.799 194.484 128.131C194.65 130.668 194.65 130.744 193.32 130.995C192.513 131.171 190.541 131.498 189.615 131.648C189.092 131.724 189.045 131.774 189.045 132.101L189.069 132.477L190.232 132.327C190.85 132.251 192.679 132.126 194.128 132.05C197.572 131.9 197.382 131.749 197.358 134.337C197.334 136.749 197.263 136.849 196.717 137.201C196.099 137.578 193.415 137.704 188.285 137.678L184.627 137.628Z" fill="#E33251"/>
<path d="M233.578 114.613C234.647 114.688 235.763 114.889 236.642 115.191C237.355 115.467 238.115 115.643 238.257 115.643C238.756 115.643 241.06 116.598 241.986 117.201C243.174 117.955 244.575 119.563 245.121 120.819C245.81 122.377 246.095 124.663 245.976 127.553C245.786 133.156 244.433 136.271 241.203 138.482C239.255 139.814 237.83 140.492 236.167 140.844C234.861 141.146 233.768 141.171 232.866 141.07C232.795 141.02 231.797 140.844 230.609 140.693C228.163 140.342 227.261 140.015 225.242 138.759C222.083 136.774 220.396 133.583 220.396 129.638C220.396 127.352 220.753 125.141 221.465 123.03C222.297 120.492 223.199 119.186 225.289 117.578C226.833 116.397 227.451 116.045 229.897 115.216C231.346 114.713 231.797 114.563 232.628 114.563C232.842 114.538 233.175 114.588 233.578 114.613ZM231.132 123.935C229.184 125.141 228.567 126.296 228.567 128.608C228.543 129.512 228.567 129.839 228.781 130.216C228.971 130.543 229.184 130.819 229.469 131.07C230.158 131.698 231.18 132.226 232.343 132.528C233.555 132.804 234.505 132.729 235.692 132.151C237.07 131.497 237.854 130.517 238.4 128.834C239.041 126.824 239.089 126.095 238.732 125.342C238.234 124.286 237.117 123.507 235.573 123.181C235.027 123.03 234.528 122.98 234.053 122.98C233.032 122.955 232.13 123.256 231.132 123.935Z" fill="#E33251"/>
<path d="M122.708 122.025C123.468 122.151 124.276 122.352 124.87 122.628C125.369 122.854 125.915 123.055 126.01 123.055C126.366 123.08 127.981 123.91 128.622 124.412C129.43 125.04 130.356 126.271 130.665 127.201C131.069 128.357 131.14 130.015 130.926 132.101C130.499 136.121 129.335 138.256 126.889 139.663C125.416 140.492 124.347 140.894 123.136 141.045C122.186 141.196 120.832 141.146 120.737 140.995C120.69 140.97 119.977 140.769 119.122 140.593C117.388 140.191 116.747 139.889 115.369 138.859C113.208 137.251 112.163 134.839 112.377 132C112.495 130.367 112.875 128.784 113.517 127.302C114.253 125.518 114.966 124.638 116.557 123.633C117.744 122.879 118.196 122.678 120.001 122.226C121.07 121.95 121.402 121.874 121.996 121.925C122.186 121.925 122.423 121.975 122.708 122.025ZM120.428 128.583C118.956 129.337 118.457 130.116 118.338 131.799C118.267 132.503 118.267 132.704 118.433 133.03C118.528 133.231 118.647 133.407 118.789 133.583C119.241 134.111 119.977 134.588 120.832 134.864C121.687 135.141 122.376 135.141 123.255 134.789C124.276 134.412 124.893 133.734 125.369 132.578C125.939 131.171 126.01 130.643 125.796 130.09C125.487 129.286 124.727 128.683 123.635 128.332C123.255 128.181 122.898 128.131 122.566 128.106C121.853 127.98 121.188 128.131 120.428 128.583Z" fill="#E33251"/>
</g>
</g>
<defs>
<clipPath id="clip0_1122_30">
<rect width="155" height="40" fill="white" transform="translate(91 102)"/>
</clipPath>
</defs>
</svg>
