<?xml version="1.0" encoding="UTF-8"?>
<!DOCTYPE svg PUBLIC "-//W3C//DTD SVG 1.1//EN" "http://www.w3.org/Graphics/SVG/1.1/DTD/svg11.dtd">
<!-- Creator: CorelDRAW X6 -->
<svg xmlns="http://www.w3.org/2000/svg" xml:space="preserve" width="66.6679mm" height="38.354mm" version="1.1" style="shape-rendering:geometricPrecision; text-rendering:geometricPrecision; image-rendering:optimizeQuality; fill-rule:evenodd; clip-rule:evenodd"
viewBox="0 0 6667 3835"
 xmlns:xlink="http://www.w3.org/1999/xlink">
 <defs>
  <style type="text/css">
   <![CDATA[
    .fil2 {fill:#999999}
    .fil0 {fill:gray;fill-rule:nonzero}
    .fil1 {fill:#CCCCCC;fill-rule:nonzero}
   ]]>
  </style>
 </defs>
 <g id="Camada_x0020_1">
  <metadata id="CorelCorpID_0Corel-Layer"/>
  <g id="_658908064">
   <polygon class="fil0" points="6,0 11,9 15,16 11,23 0,42 0,0 "/>
   <polygon class="fil0" points="2,23 0,19 0,0 19,0 21,3 2229,3 2230,0 2261,0 2248,22 2244,29 2236,29 13,29 13,16 "/>
   <polygon class="fil0" points="3321,1947 2210,23 2206,16 2210,9 2215,0 2246,0 2236,16 3340,1928 5548,1928 6652,16 6642,0 6667,0 6667,42 5567,1947 5563,1954 5555,1954 3333,1954 3325,1954 "/>
   <polygon class="fil0" points="2224,3835 3321,1934 3325,1928 3333,1928 5555,1928 5563,1928 5567,1934 6664,3835 6634,3835 5548,1954 3340,1954 2254,3835 "/>
   <path class="fil0" d="M0 13l2 -3 4 -7 8 0 2223 0 8 0 4 7 1111 1925 4 7 -4 7 -1090 1888 -30 0 1094 -1894 -1104 -1912 -2208 0 -21 36 0 -53zm11 3823l-11 0 0 -19 11 19z"/>
   <polygon class="fil0" points="6667,19 6656,0 6667,0 "/>
   <polygon class="fil0" points="6647,3835 5557,1947 5554,1941 5557,1934 6667,13 6667,66 5584,1941 6667,3816 6667,3835 "/>
   <polygon class="fil1" points="2227,0 2233,9 2236,16 2233,23 1121,1947 1117,1954 1110,1954 0,1954 0,1928 1102,1928 2206,16 2197,0 "/>
   <polygon class="fil1" points="0,1928 1110,1928 1117,1928 1121,1934 2219,3835 2188,3835 1102,1954 0,1954 "/>
   <polygon class="fil1" points="2223,22 2210,0 2241,0 2242,3 4450,3 4451,0 4482,0 4469,22 4465,29 4457,29 2235,29 2235,16 "/>
   <polygon class="fil1" points="5542,1947 4431,23 4427,16 4431,9 4436,0 4467,0 4458,16 5561,1928 6667,1928 6667,1954 5554,1954 5546,1954 "/>
   <polygon class="fil1" points="4445,3835 5542,1934 5546,1928 5554,1928 6667,1928 6667,1954 5561,1954 4475,3835 "/>
   <polygon class="fil1" points="2202,3835 1112,1947 1108,1941 1112,1934 2223,9 2227,3 2235,3 4457,3 4465,3 4469,9 5580,1934 5584,1941 5580,1947 4490,3835 4460,3835 5554,1941 4450,29 2242,29 1138,1941 2232,3835 "/>
   <path class="fil2" d="M0 168c5,0 9,1 14,1 84,0 153,-69 153,-153 0,-5 0,-11 -1,-16l-36 0c1,5 1,11 1,16 0,65 -53,117 -117,117 -5,0 -10,0 -14,-1l0 35z"/>
   <path class="fil2" d="M2083 0c-1,5 -1,11 -1,16 0,84 69,153 153,153 84,0 153,-69 153,-153 0,-5 0,-11 -1,-16l-36 0c1,5 1,11 1,16 0,65 -53,117 -117,117 -65,0 -117,-53 -117,-117 0,-5 0,-11 1,-16l-36 0z"/>
   <path class="fil2" d="M6515 0c-1,5 -1,11 -1,16 0,84 68,153 153,153l0 -35c-65,0 -117,-53 -117,-117 0,-5 0,-11 1,-16l-36 0z"/>
   <path class="fil2" d="M3319 1800c-84,0 -153,69 -153,153 0,84 68,153 153,153 84,0 153,-68 153,-153 0,-84 -68,-153 -153,-153l0 0zm0 35c65,0 117,53 117,117 0,65 -53,117 -117,117 -65,0 -117,-53 -117,-117 0,-65 53,-117 117,-117z"/>
   <path class="fil2" d="M5540 1800c-84,0 -153,69 -153,153 0,84 68,153 153,153 84,0 153,-68 153,-153 0,-84 -69,-153 -153,-153l0 0zm0 35c65,0 117,53 117,117 0,65 -53,117 -117,117 -65,0 -117,-53 -117,-117 0,-65 53,-117 117,-117z"/>
   <path class="fil2" d="M14 3725c-5,0 -9,0 -14,1l0 35c5,-1 9,-1 14,-1 50,0 93,31 110,75l37 0c-18,-64 -77,-111 -147,-111l0 0z"/>
   <path class="fil2" d="M2235 3725c-70,0 -129,47 -147,111l37 0c17,-44 60,-75 110,-75 50,0 93,31 110,75l37 0c-18,-64 -77,-111 -147,-111l0 0z"/>
   <path class="fil2" d="M6667 3725c-70,0 -128,47 -147,111l37 0c17,-44 60,-75 110,-75l0 -35 0 0z"/>
  </g>
 </g>
</svg>
