<svg width="337" height="244" viewBox="0 0 337 244" fill="none" xmlns="http://www.w3.org/2000/svg">
<rect width="337" height="244" fill="white"/>
<path d="M84.374 132.013V128.409H90.4121V133.491L86.4468 137.557H73.4692V112.146L77.7951 108.081H90.4121V119.169H84.374V113.625H79.5074V131.921H84.374V132.013Z" fill="black"/>
<path d="M92.7554 108.081H110.059V137.557H92.7554V108.081ZM98.7935 132.013H104.111V113.717H98.7935V132.013Z" fill="black"/>
<path d="M124.118 124.99V108.081H129.795V137.557H123.847L117.989 120.647V137.557H112.312V108.081H118.26L124.118 124.99Z" fill="black"/>
<path d="M132.138 108.081H146.107V113.717H138.086V119.354H145.657V124.898H138.177V132.013H146.288V137.557H132.138V108.081Z" fill="black"/>
<path d="M159.355 132.013V128.409H165.393V133.491L161.428 137.557H148.45V112.146L152.776 108.081H165.393V119.169H159.355V113.625H154.489V131.921H159.355V132.013Z" fill="black"/>
<path d="M184.139 113.717H178.731V137.557H172.693V113.717H167.106V108.081H184.229V113.717H184.139Z" fill="black"/>
<path d="M212.978 108.081H226.676V113.625H218.835V119.169H226.316V124.621H218.926V131.643H226.946V137.187H212.978V108.081Z" fill="#CBD440"/>
<path d="M229.109 108.081H241.276L245.872 112.701V133.122L241.907 137.095H229.109V108.081ZM239.834 131.643V113.625H234.967V131.643H239.834Z" fill="#CBD440"/>
<path d="M264.888 137.095H248.125V108.081H254.073V131.643H258.94V108.081H264.888V137.095Z" fill="#CBD440"/>
<path d="M199.91 111.5H193.331V119.446H199.91V111.5Z" fill="#64C0D4"/>
<path d="M199.91 133.861H193.421L193.331 119.354H207.57V126.007L199.91 126.099V133.861Z" fill="#36AD9D"/>
<path d="M185.658 119.336V126.082H193.318V119.336H185.658Z" fill="#64C0D4"/>
</svg>
